HIERARCHY
ROOT Hips
{
	OFFSET 0 0 0
	CHANNELS 6 Xposition Yposition Zposition Xrotation Yrotation Zrotation
	JOINT RightHandThumb1
	{
		OFFSET -1.78 -1.1 1.54
		CHANNELS 3 Xrotation Yrotation Zrotation
		JOINT RightHandThumb2
		{
			OFFSET -3.15004 0 0
			CHANNELS 3 Xrotation Yrotation Zrotation
			JOINT RightHandThumb3
			{
				OFFSET -3.52369 0 0
				CHANNELS 3 Xrotation Yrotation Zrotation
				JOINT RightHandThumb4
				{
					OFFSET -2.58404 0 0
					CHANNELS 3 Xrotation Yrotation Zrotation
					End Site
					{
						OFFSET -0 0 0
					}
				}
			}
		}
	}
	JOINT RightHandIndex1
	{
		OFFSET -7.4073 0.785551 3.77204
		CHANNELS 3 Xrotation Yrotation Zrotation
		JOINT RightHandIndex2
		{
			OFFSET -4.08729 0 0
			CHANNELS 3 Xrotation Yrotation Zrotation
			JOINT RightHandIndex3
			{
				OFFSET -1.89986 0 0
				CHANNELS 3 Xrotation Yrotation Zrotation
				JOINT RightHandIndex4
				{
					OFFSET -1.78024 0 0
					CHANNELS 3 Xrotation Yrotation Zrotation
					End Site
					{
						OFFSET -0 0 0
					}
				}
			}
		}
	}
	JOINT RightHandMiddle1
	{
		OFFSET -8.35792 1.13445 0.717983
		CHANNELS 3 Xrotation Yrotation Zrotation
		JOINT RightHandMiddle2
		{
			OFFSET -4.6 0 0
			CHANNELS 3 Xrotation Yrotation Zrotation
			JOINT RightHandMiddle3
			{
				OFFSET -2.13026 0 0
				CHANNELS 3 Xrotation Yrotation Zrotation
				JOINT RightHandMiddle4
				{
					OFFSET -1.56219 0 0
					CHANNELS 3 Xrotation Yrotation Zrotation
					End Site
					{
						OFFSET -0 0 0
					}
				}
			}
		}
	}
	JOINT RightHandRing1
	{
		OFFSET -7.73062 0.64105 -2.07729
		CHANNELS 3 Xrotation Yrotation Zrotation
		JOINT RightHandRing2
		{
			OFFSET -4.33866 0 0
			CHANNELS 3 Xrotation Yrotation Zrotation
			JOINT RightHandRing3
			{
				OFFSET -2.22865 0 0
				CHANNELS 3 Xrotation Yrotation Zrotation
				JOINT RightHandRing4
				{
					OFFSET -1.63434 0 0
					CHANNELS 3 Xrotation Yrotation Zrotation
					End Site
					{
						OFFSET -0 0 0
					}
				}
			}
		}
	}
	JOINT RightHandPinky1
	{
		OFFSET -7.64414 -0.346801 -3.91753
		CHANNELS 3 Xrotation Yrotation Zrotation
		JOINT RightHandPinky2
		{
			OFFSET -2.756 0 0
			CHANNELS 3 Xrotation Yrotation Zrotation
			JOINT RightHandPinky3
			{
				OFFSET -2.1983 0 0
				CHANNELS 3 Xrotation Yrotation Zrotation
				JOINT RightHandPinky4
				{
					OFFSET -1.30207 0 0
					CHANNELS 3 Xrotation Yrotation Zrotation
					End Site
					{
						OFFSET -0 0 0
					}
				}
			}
		}
	}
}
MOTION
Frames: 26
Frame Time: 0.00833333
0 0.000000 0 0 0 0 0 0 0 0 0 0 0 0 0 0 0 0 0 0 0 0 0 0 0 0 0 0 0 0 0 0 0 0 0 0 0 0 0 0 0 0 0 0 0 0 0 0 0 0 0 0 0 0 0 0 0 0 0 0 0 0 0 0 0 0
-13.83539734 26.77476196 17.2054718 -63.65512897 86.66433218 76.64240265 -41.1487581 33.30132907 37.34803144 0 -2.17544238 0.00000006 0.00000001 6.5348005 -0.00000018 0 0 -0 -2.64882244 3.668342 -3.46376275 -0 0 6.17239218 -0 0 1.5246717 -0 0 0 4.34905929 -0.82144499 1.85835394 -0 0 1.96570506 -0 0 -0.52523682 -0 0 0 3.15381469 -7.34708445 2.20811526 -0 0 -0.13939212 -0 0 -2.54330529 -0 0 0 3.33414655 -15.64758581 3.90041118 -0 0 -0.15675107 -0 0 -3.37749634 -0 0 0
-13.83861084 26.77481384 17.20729828 -63.50835508 86.66413539 76.52000589 -41.12911625 33.29198857 37.31578484 0 -2.16007156 0.00000006 0.00000001 6.52438798 -0.00000018 0 -0 -0 -2.64502892 3.66088623 -3.46260827 -0 0 6.56464016 -0 0 1.13634888 -0 0 0 4.34886859 -0.82662159 1.837593 -0 0 1.94011235 -0 0 -0.51624985 -0 0 0 3.15189388 -7.35375169 2.18889618 -0 0 -0.13853001 -0 0 -2.53777446 -0 0 0 3.32608395 -15.64878774 3.88637349 -0 0 -0.15612822 -0 0 -3.38008884 -0 0 0
-13.84115448 26.773703 17.20895691 -63.40901274 86.66414632 76.43764985 -41.11221616 33.27868812 37.28605249 0 -2.13841556 0.00000006 0.00000001 6.51591103 -0.00000018 0 -0 -0 -2.64827448 3.6526465 -3.45763108 -0 0 6.6681097 -0 0 1.02978971 -0 0 0 4.34538341 -0.8368839 1.82146959 -0 0 1.92410262 -0 0 -0.51640086 -0 0 0 3.14811477 -7.36322829 2.1708712 -0 0 -0.14341723 -0 0 -2.52687534 -0 0 0 3.31647247 -15.65421319 3.87836496 -0 0 -0.15418806 -0 0 -3.38384682 -0 0 0
-13.8427536 26.77059631 17.21092224 -63.33893006 86.66636644 76.38294648 -41.09749851 33.26257706 37.25640978 0 -2.12086382 0.00000006 0.00000001 6.50666549 -0.00000018 0 -0 0 -2.65855629 3.64656275 -3.45609458 -0 0 6.64241108 -0 0 1.04994506 -0 0 0 4.333723 -0.84620418 1.80384178 -0 0 1.9386848 -0 0 -0.54266119 -0 0 0 3.13283412 -7.37474275 2.15121589 -0 0 -0.14694771 -0 0 -2.51912354 -0 0 0 3.30069901 -15.66370788 3.86996153 -0 0 -0.15314849 -0 0 -3.38485911 -0 0 0
-13.845047 26.76754456 17.21286926 -63.26667652 86.67162206 76.32755084 -41.08721141 33.24304684 37.22921338 0 -2.08368138 0.00000006 0.00000001 6.50012375 -0.00000017 -0 0 0 -2.6731428 3.64157231 -3.4515857 -0 0 7.05948529 -0 0 0.6280194 -0 0 0 4.3190845 -0.85395818 1.78256803 -0 0 1.9191396 -0 0 -0.53631183 -0 0 0 3.11087645 -7.38245794 2.13158423 -0 0 -0.14127979 -0 0 -2.52121626 -0 0 0 3.28369983 -15.66981117 3.85492251 -0 0 -0.1521281 -0 0 -3.38648497 -0 0 0
-13.84727478 26.76740417 17.21352692 -63.18334729 86.67722716 76.26837811 -41.07455326 33.22545562 37.20142743 0 -2.02815835 0.00000005 0.00000001 6.50390503 -0.00000018 -0 0 0 -2.69206715 3.64556517 -3.45644017 -0 0 6.97616028 -0 0 0.70389925 -0 0 0 4.30333612 -0.85957953 1.75262957 -0 0 1.87750836 -0 0 -0.51792694 -0 0 0 3.09483468 -7.38900568 2.10194401 -0 0 -0.14694736 -0 0 -2.52396019 -0 0 0 3.26544521 -15.67495777 3.82863198 -0 0 -0.15777523 -0 0 -3.3873394 -0 0 0
-13.84949341 26.76818848 17.21406708 -63.16825844 86.68279788 76.28729054 -41.05237427 33.21330662 37.16503919 0 -1.98160809 0.00000005 0.00000001 6.51174373 -0.00000018 0 -0 0 -2.70470364 3.65324013 -3.48142523 -0 0 6.45603943 -0 0 1.21985313 -0 0 0 4.29012763 -0.86551118 1.71497663 -0 0 1.84083098 -0 0 -0.51075989 -0 0 0 3.08103016 -7.3990096 2.06350713 -0 0 -0.14258632 -0 0 -2.53248769 -0 0 0 3.24498491 -15.68684401 3.79675944 -0 0 -0.15779695 -0 0 -3.39173271 -0 0 0
-13.85099945 26.76913147 17.21483307 -63.15304909 86.69002215 76.30658876 -41.02382481 33.2048649 37.12221245 0 -1.94600438 0.00000005 0.00000001 6.51919513 -0.00000018 0 0 -0 -2.70777902 3.65732978 -3.51103618 -0 0 6.13221101 -0 0 1.5428151 -0 0 0 4.28419694 -0.87138437 1.67942559 -0 0 1.81915001 -0 0 -0.52140634 -0 0 0 3.07420159 -7.40529591 2.03401569 -0 0 -0.12130063 -0 0 -2.55914464 -0 0 0 3.23281917 -15.69440657 3.76204137 -0 0 -0.16149848 -0 0 -3.39138218 -0 0 0
-13.85330658 26.7709198 17.21576538 -63.12729286 86.69936585 76.31500971 -40.99031887 33.19945845 37.07461332 0 -1.91700126 0.00000005 0.00000001 6.5284752 -0.00000018 -0 -0 -0 -2.70495525 3.65709808 -3.54220123 -0 0 5.90320514 -0 0 1.77408886 -0 0 0 4.28154248 -0.87935391 1.64317565 -0 0 1.78327616 -0 0 -0.52538153 -0 0 0 3.0764286 -7.41448218 2.00522431 -0 0 -0.11279224 -0 0 -2.57467891 -0 0 0 3.22742373 -15.70394036 3.72670393 -0 0 -0.16461534 -0 0 -3.3990814 -0 0 0
-13.8554657 26.77138062 17.2167923 -63.07900625 86.70728394 76.30182224 -40.95224428 33.19712435 37.02240811 0 -1.89963153 0.00000005 0.00000001 6.53512771 -0.00000018 -0 0 -0 -2.6946101 3.65855325 -3.57574509 -0 0 5.75393215 -0 0 1.92716175 -0 0 0 4.28290075 -0.88353592 1.60426155 -0 0 1.77725725 -0 0 -0.56518961 -0 0 0 3.08019374 -7.42803443 1.97302881 -0 0 -0.1148225 -0 0 -2.58164598 -0 0 0 3.22021195 -15.71752187 3.69146395 -0 0 -0.15906065 -0 0 -3.41474095 -0 0 0
-13.8575882 26.77108459 17.21714935 -63.02778684 86.71365744 76.28194035 -40.91449448 33.19454639 36.96988427 0 -1.89252185 0.00000005 0.00000001 6.5338832 -0.00000018 0 -0 -0 -2.68196883 3.65450268 -3.60437439 -0 0 5.69417835 -0 0 1.98970633 -0 0 0 4.28380495 -0.88884333 1.57161696 -0 0 1.79748495 -0 0 -0.63209793 -0 0 0 3.08452441 -7.44116028 1.94837483 -0 0 -0.11027557 -0 0 -2.58968493 -0 0 0 3.21394608 -15.7321093 3.66101303 -0 0 -0.15698931 -0 0 -3.42139329 -0 0 0
-13.85952911 26.76643677 17.21836243 -63.00270081 86.71608784 76.28061958 -40.88337192 33.18832842 36.92257995 0 -1.89295882 0.00000005 0.00000001 6.52957785 -0.00000018 0 0 -0 -2.67317072 3.6470139 -3.62417501 -0 0 5.56881627 -0 0 2.1164989 -0 0 0 4.28394988 -0.89918703 1.55281167 -0 0 1.75770203 -0 0 -0.63973382 -0 0 0 3.08859569 -7.45423904 1.93583618 -0 0 -0.11257235 -0 0 -2.58863545 -0 0 0 3.21019941 -15.74378778 3.64228681 -0 0 -0.16052873 -0 0 -3.41934758 -0 0 0
-13.86134186 26.76057739 17.2197052 -62.98175692 86.71457347 76.28288017 -40.85930416 33.17821128 36.88111627 0 -1.88191649 0.00000005 0.00000001 6.52368967 -0.00000018 0 -0 0 -2.67478828 3.64210194 -3.64601568 -0 0 5.50000609 -0 0 2.18339136 -0 0 0 4.27275725 -0.91069877 1.5317819 -0 0 1.67430704 -0 0 -0.61396641 -0 0 0 3.0844871 -7.46947975 1.91830184 -0 0 -0.1229503 -0 0 -2.57908605 -0 0 0 3.20159976 -15.75695489 3.62484743 -0 0 -0.17159364 -0 0 -3.41308628 -0 0 0
-13.86330872 26.75514526 17.2213028 -62.91525409 86.71251846 76.23622014 -40.83964831 33.16610189 36.8434987 0 -1.86347275 0.00000005 0.00000001 6.52068722 -0.00000018 0 0 -0 -2.6899524 3.6456297 -3.66594375 -0 0 5.42022826 -0 0 2.25891829 -0 0 0 4.24827154 -0.91254451 1.52037543 -0 0 1.54775829 -0 0 -0.5893268 -0 0 0 3.06858852 -7.47655155 1.90061316 -0 0 -0.1328668 -0 0 -2.56865526 -0 0 0 3.18599868 -15.76695984 3.60718123 -0 0 -0.17749904 -0 0 -3.40158579 -0 0 0
-13.86530914 26.74963074 17.222789 -62.94815084 86.6984133 76.2835955 -40.8210534 33.15428807 36.81216059 0 -1.86003331 0.00000005 0.00000001 6.51484844 -0.00000018 -0 -0 -0 -2.68066079 3.65545283 -3.68637138 -0 0 5.35521861 -0 0 2.32266217 -0 0 0 4.21508092 -0.88195862 1.51141308 -0 0 1.43700924 -0 0 -0.59116653 -0 0 0 3.069371 -7.47879771 1.88918645 -0 0 -0.13457585 -0 0 -2.56411822 -0 0 0 3.19294831 -15.77270765 3.59682298 -0 0 -0.18236559 -0 0 -3.39417672 -0 0 0
-13.86772766 26.74812927 17.22418671 -63.17154541 86.66633433 76.52261525 -40.79395467 33.14865301 36.78437124 0 -1.86623939 0.00000005 0.00000001 6.50762157 -0.00000018 0 -0 0 -2.65992645 3.65322851 -3.69852378 -0 0 5.94993288 -0 0 1.72170578 -0 0 0 4.21439879 -0.81710818 1.52978964 -0 0 1.30988826 -0 0 -0.63881789 -0 0 0 3.10536603 -7.48232476 1.87920914 -0 0 -0.14102061 -0 0 -2.55824069 -0 0 0 3.22427526 -15.78406487 3.5812848 -0 0 -0.17992807 -0 0 -3.38532014 -0 0 0
-13.87024841 26.75022278 17.22556915 -63.32568267 86.63130783 76.69028982 -40.7621177 33.14572217 36.76227666 0 -1.85778123 0.00000005 0.00000001 6.50062818 -0.00000017 -0 0 0 -2.62415641 3.66442476 -3.70770696 -0 0 6.32508795 -0 0 1.33732298 -0 0 0 4.26569823 -0.8019611 1.51989989 -0 0 1.24673038 -0 0 -0.67956437 -0 0 0 3.14498479 -7.47290494 1.86770094 -0 0 -0.13749964 -0 0 -2.55341329 -0 0 0 3.25837571 -15.78533162 3.56550076 -0 0 -0.1778991 -0 0 -3.38415573 -0 0 0
-13.87392273 26.74842224 17.22680817 -63.39132651 86.60537956 76.76249696 -40.72839286 33.1430128 36.74413456 0 -1.85876487 0.00000005 0.00000001 6.49631558 -0.00000017 0 -0 0 -2.59676744 3.65853863 -3.71196704 -0 0 6.45844373 -0 0 1.19411712 -0 0 0 4.29120066 -0.82778745 1.50465153 -0 0 1.2712949 -0 0 -0.79338691 -0 0 0 3.17522541 -7.47119657 1.85848916 -0 0 -0.13059845 -0 0 -2.55839497 -0 0 0 3.28055557 -15.78215 3.55957574 -0 0 -0.16893065 -0 0 -3.3917472 -0 0 0
-13.87685242 26.74797363 17.22803955 -63.30888272 86.58953435 76.68581514 -40.70037731 33.13656383 36.72849426 0 -1.85242605 0.00000005 0.00000001 6.48670661 -0.00000017 -0 0 0 -2.58022058 3.64463629 -3.71010558 -0 0 6.61247951 -0 0 1.02386305 -0 0 0 4.29669389 -0.83174403 1.48988256 -0 0 1.31064356 -0 0 -0.88148594 -0 0 0 3.19146633 -7.47655997 1.84915284 -0 0 -0.12941065 -0 0 -2.55921079 -0 0 0 3.3069041 -15.78696267 3.55443733 -0 0 -0.17052444 -0 0 -3.39176171 -0 0 0
-13.8794754 26.74593811 17.22921448 -63.17863786 86.57516704 76.56193971 -40.67623502 33.12765621 36.71575445 0 -1.84085104 0.00000005 0.00000001 6.4796348 -0.00000017 0 0 0 -2.57157593 3.64472918 -3.70231886 -0 0 6.58400546 -0 0 1.04578309 -0 0 0 4.30723968 -0.82557103 1.4801687 -0 0 1.32560315 -0 0 -0.94551413 -0 0 0 3.1974095 -7.47707048 1.84189439 -0 0 -0.12552855 -0 0 -2.56302292 -0 0 0 3.31628399 -15.79274583 3.54719306 -0 0 -0.16505272 -0 0 -3.40187615 -0 0 0
-13.88163147 26.74390259 17.23073425 -62.99086083 86.55969061 76.38061039 -40.65488704 33.11821407 36.70695248 0 -1.83035699 0.00000005 0.00000001 6.47207689 -0.00000017 0 0 0 -2.56013702 3.65229331 -3.69535529 -0 0 6.51300319 -0 0 1.11239795 -0 0 0 4.31965428 -0.82145189 1.47267824 -0 0 1.28220361 -0 0 -0.95386154 -0 0 0 3.20718524 -7.46508825 1.8388262 -0 0 -0.12737285 -0 0 -2.56377835 -0 0 0 3.32827661 -15.7831023 3.5450973 -0 0 -0.16433645 -0 0 -3.39889472 -0 0 0
-13.88375397 26.74035339 17.23219757 -62.7675588 86.54554732 76.16349215 -40.63560704 33.10778811 36.70188314 0 -1.82029852 0.00000005 0.00000001 6.46364767 -0.00000017 0 0 0 -2.54750188 3.6611938 -3.68828005 -0 0 6.36217064 -0 0 1.25658962 -0 0 0 4.32685824 -0.81463682 1.4665216 -0 0 1.19476613 -0 0 -0.91448857 -0 0 0 3.22289492 -7.452674 1.84070451 -0 0 -0.12789933 -0 0 -2.56142792 -0 0 0 3.34336548 -15.76698204 3.54719868 -0 0 -0.16657311 -0 0 -3.39377564 -0 0 0
-13.88458252 26.73754883 17.2335556 -62.5519901 86.5296292 75.9503274 -40.61939313 33.09542458 36.70150377 0 -1.80622738 0.00000005 0.00000001 6.45593888 -0.00000017 0 -0 0 -2.53784504 3.67744949 -3.68172864 -0 0 5.89535715 -0 0 1.71708785 -0 0 0 4.33885102 -0.80491247 1.46182852 -0 0 1.11315481 -0 0 -0.87100533 -0 0 0 3.24149197 -7.44454414 1.84281149 -0 0 -0.13982501 -0 0 -2.54456789 -0 0 0 3.35881611 -15.75890861 3.55075698 -0 0 -0.17210476 -0 0 -3.38713117 -0 0 0
-13.88487854 26.73482666 17.23486633 -62.34547277 86.514312 75.74290553 -40.60535189 33.08147252 36.70513688 0 -1.77995367 0.00000005 0.00000001 6.44904689 -0.00000017 -0 -0 -0 -2.53361566 3.69390625 -3.67581147 -0 0 5.9272327 -0 0 1.67700261 -0 0 0 4.34591439 -0.79746526 1.45729939 -0 0 1.00693398 -0 0 -0.8086102 -0 0 0 3.25157437 -7.43587154 1.84230949 -0 0 -0.14065821 -0 0 -2.54586826 -0 0 0 3.36916055 -15.75127216 3.55343173 -0 0 -0.17349589 -0 0 -3.38181731 -0 0 0
-13.8869278 26.73352966 17.23607788 -62.14850392 86.49857124 75.5441827 -40.59110281 33.06736876 36.70904268 0 -1.7494018 0.00000005 0.00000001 6.44427923 -0.00000017 0 -0 -0 -2.53011891 3.70833833 -3.67182748 -0 0 5.73361714 -0 0 1.86381347 -0 0 0 4.35001141 -0.79024679 1.44958731 -0 0 0.97982838 -0 0 -0.83168422 -0 0 0 3.25553809 -7.42260455 1.84067332 -0 0 -0.12981074 -0 0 -2.55807217 -0 0 0 3.37725502 -15.73863453 3.55710384 -0 0 -0.17178557 -0 0 -3.37656746 -0 0 0
